<?xml version="1.0" encoding="UTF-8" standalone="no"?>
<svg id="svg2" xmlns:rdf="http://www.w3.org/1999/02/22-rdf-syntax-ns#" xmlns="http://www.w3.org/2000/svg" height="315.92mm" width="387.71mm" version="1.1" xmlns:cc="http://creativecommons.org/ns#" xmlns:dc="http://purl.org/dc/elements/1.1/" viewBox="0 0 1373.7734 1119.3974">
<g id="layer1" transform="translate(996.83 113.91)">
<path id="path4160" d="m-317.83-68.912v24.033 24.033l-2.6894 5.2168c-1.4796 2.8692-2.7784 5.6927-2.8848 6.2754-0.10638 0.58273-1.3695 3.6332-2.8086 6.7793-1.439 3.1461-2.6172 5.9572-2.6172 6.2461 0 0.55046-2.2042 5.5387-7.2402 16.385-1.6522 3.5583-6.8364 15.483-11.52 26.5-10.869 25.569-14.423 33.831-17.217 40.031-5.146 11.42-7.2288 16.108-8.002 18-0.44956 1.1-1.5061 3.575-2.3476 5.5-3.572 8.1708-9.0349 20.925-11.352 26.5-1.3712 3.3-3.7552 8.7-5.2969 12s-3.8043 8.475-5.0273 11.5-3.2509 7.75-4.5078 10.5c-7.1161 15.569-6.4902 9.1374-6.4902 66.627v51.873h5 5v-12-12h39.576 39.576l-0.17773 3.25c-0.0979 1.7875-0.13187 7.2032-0.0762 12.037l0.10156 8.7891 8.75-0.28906 0.13672-0.004 0.13672 0.004 8.75 0.28906 0.10156-8.7891c0.0557-4.8339 0.0217-10.25-0.0762-12.037l-0.17774-3.25h39.576 39.576v12 12h5 5v-51.873c0-57.49 0.62585-51.058-6.4902-66.627-1.2569-2.75-3.2848-7.475-4.5078-10.5s-3.4857-8.2-5.0273-11.5c-1.5417-3.3-3.9256-8.7-5.2969-12-2.3166-5.5752-7.7796-18.329-11.352-26.5-0.84154-1.925-1.8981-4.4-2.3477-5.5-0.77313-1.8918-2.856-6.5796-8.002-18-2.7937-6.2-6.3476-14.463-17.217-40.031-4.6832-11.017-9.8674-22.942-11.52-26.5-5.036-10.846-7.2402-15.834-7.2402-16.385 0-0.28888-1.1782-3.1-2.6172-6.2461s-2.7022-6.1966-2.8086-6.7793c-0.10637-0.58273-1.4052-3.4062-2.8848-6.2754l-2.6894-5.2168v-24.033-24.033h7.5 7.5v6.3457 6.3457l12.156 0.6543c6.6864 0.35953 19.961 0.6543 29.5 0.6543h17.344v-23-23h-14.5-14.5v-6.5-6.5h-30-30.866zm-157.85 278.68c-3.3531 0.00038-6.0883 0.0432-7.3945 0.12696l-4.75 0.30469v9.4726 9.4727l-19.5-0.14649-19.5-0.14648v-9.3828-9.3809h-19-19v9.5 9.5h-18-18v-9.5-9.5h-19-19v9.5 9.5h-18.5-18.5v-9.5-9.5h-19-19l0.0352 28.25 0.0371 28.25 4.2148 2.5938c2.3174 1.4264 7.7089 4.7423 11.982 7.3672l7.7695 4.7715-0.0391 42.635c-0.0215 23.449-0.0305 43.645-0.0195 44.883 0.018 1.997 0.52553 2.25 4.5195 2.25h4.5v15 15h13.5 13.5l0.1875-7.25c0.1027-3.9875 0.0519-10.738-0.11133-15l-0.29688-7.75h45.08 45.08l0.0176 55.965 0.0195 55.963-4.4473 3.2871c-5.0148 3.7062-6.8691 5.0116-21.279 14.984-8.0886 5.5978-10.25 7.5895-10.25 9.4473v2.3535h13.973 13.975l0.27539 14.75 0.27735 14.75 14.75 0.27734 14.75 0.27734v-15.027-15.025h22.422 22.422l-0.17188-124-0.17187-124h23.25l23.25 0.002v-27.447-27.449l-13.75-0.30079c-3.7812-0.0832-7.7524-0.12536-11.105-0.125zm331.48 0c-3.3531-0.00036-7.3242 0.0418-11.105 0.125l-13.75 0.30079v27.449 27.447l23.25-0.002h23.25l-0.17188 124-0.17187 124h22.422 22.422v15.025 15.027l14.75-0.27734 14.75-0.27734 0.27734-14.75 0.27539-14.75h13.975 13.973v-2.3535c0-1.8578-2.1614-3.8494-10.25-9.4473-14.41-9.9728-16.265-11.278-21.279-14.984l-4.4473-3.2871 0.01953-55.963 0.01758-55.965h45.08 45.08l-0.29688 7.75c-0.1632 4.2625-0.21403 11.012-0.11133 15l0.1875 7.25h13.5 13.5v-15-15h4.5c3.994 0 4.5015-0.25302 4.5195-2.25 0.011-1.2375 0.0025-21.434-0.01953-44.883l-0.03906-42.635 7.7695-4.7715c4.2735-2.6249 9.665-5.9408 11.982-7.3672l4.2148-2.5938 0.03711-28.25 0.03516-28.25h-19-19v9.5 9.5h-18.5-18.5v-9.5-9.5h-19-19v9.5 9.5h-18-18v-9.5-9.5h-19-19v9.3809 9.3828l-19.5 0.14648-19.5 0.14649v-9.4727-9.4726l-4.75-0.30469c-1.3062-0.0838-4.0414-0.12659-7.3945-0.12696zm-190.69 70.285-24.217 0.26758-24.219 0.26953-0.28125 11.75-0.28125 11.75h-24.469-24.469v-12-12h-24.5-24.5v116.5 116.5h15 15v15 15h15 15v-15-15h44.5 44.5v15 15h15 7.8867 7.8867 15v-15-15h44.5 44.5v15 15h15 15v-15-15h15 15v-116.5-116.5h-24.5-24.5v12 12h-24.469-24.469l-0.28125-11.75-0.28125-11.75-24.219-0.26953-24.217-0.26758-0.2832 11.768-0.28125 11.77-23.75 0.26758-0.63672 0.008-0.63672-0.008-23.75-0.26758-0.28125-11.77zm-66.291 84.006c8.7853 0.22918 17.66 8.7962 23.039 24.721 1.3488 3.9932 1.6981 11.136 2.0547 42.061l0.42969 37.25h-25.584-25.584l0.0351-33.75c0.041-39.357 0.5718-43.249 7.7363-56.75 4.7304-8.9144 10.825-13.309 17.023-13.527 0.28309-0.01 0.56621-0.0113 0.84961-0.004zm182.48 0c0.2834-0.007 0.56652-0.006 0.84961 0.004 6.1982 0.21877 12.293 4.613 17.023 13.527 7.1645 13.501 7.6953 17.393 7.7363 56.75l0.0352 33.75h-25.584-25.584l0.42968-37.25c0.35657-30.925 0.70592-38.067 2.0547-42.061 5.3788-15.925 14.254-24.492 23.039-24.721zm-626.44 21.963c-11.936-0.001-24.267 0.01-27.436 0.0312l-5.25 0.0371v14.5 14.5h-29.5-29.5v-14.5-14.5h-30-30v44.893 44.895l12.988 8.8555c7.1432 4.8707 15.356 10.316 18.25 12.098l5.2617 3.2383 0.5 226.11 0.5 226.11 6 3.1621c21.71 11.441 43.772 19.027 82 28.195 8.6887 2.0838 35.674 6.2262 45 6.9082 4.4 0.32168 10.25 0.82789 13 1.125 2.75 0.2971 20.525 0.68312 39.5 0.85742 35.357 0.3248 60.927 1.4893 90 4.1016 9.075 0.8155 18.975 1.6952 22 1.9551 19.895 1.7088 28.513 2.6653 36 3.9921 9.9739 1.7675 8.5741 1.6017 9.1016 1.0742 0.23891-0.2389 0.33971-38.138 0.22461-84.219-0.1351-54.135 0.14165-84.206 0.78125-84.977 0.60982-0.7348 0.62908-1.4158 0.0508-1.7734-0.5707-0.3527-0.97188-29.328-1.0215-73.838-0.045-40.292-0.0941-80.249-0.10938-88.793l-0.0273-15.533-12.25-8.0352c-23.853-15.645-26.281-17.283-29.25-19.732l-3-2.4746-0.0781-55.596-0.0781-55.594h22.328 22.328v-6.0078-6.0059l6.75-4.4414c9.0197-5.9351 23.973-16.196 28-19.213l3.25-2.4355v-44.449-44.447h-30-30v14.963 14.965l-29.5-0.0527-29.5-0.0527v-14.912-14.91h-30-30v14.5 14.5h-30-30v-14.5c0-14.361-0.022-14.502-2.25-14.533-1.587-0.0221-13.128-0.0342-25.064-0.0352zm1070.4 0c-11.936 0.001-23.478 0.0131-25.064 0.0352-2.228 0.031-2.25 0.1721-2.25 14.533v14.5h-30-30v-14.5-14.5h-30-30v14.91 14.912l-29.5 0.0527-29.5 0.0527v-14.965-14.963h-30-30v44.447 44.449l3.25 2.4355c4.027 3.017 18.98 13.278 28 19.213l6.75 4.4414v6.0059 6.0078h22.328 22.328l-0.07813 55.594-0.07813 55.596-3 2.4746c-2.9689 2.4499-5.3967 4.0877-29.25 19.732l-12.25 8.0352-0.027344 15.533c-0.0153 8.5437-0.064375 48.501-0.10938 88.793-0.0496 44.51-0.45078 73.485-1.0215 73.838-0.5783 0.3576-0.55902 1.0386 0.050781 1.7734 0.6396 0.7707 0.91635 30.842 0.78125 84.977-0.1151 46.081-0.014291 83.98 0.22461 84.219 0.5275 0.5275-0.87234 0.6933 9.1016-1.0742 7.4869-1.3268 16.105-2.2833 36-3.9922 3.025-0.2599 12.925-1.1396 22-1.9551 29.073-2.6123 54.643-3.7768 90-4.1016 18.975-0.1743 36.75-0.56032 39.5-0.85742 2.75-0.29711 8.6-0.80332 13-1.125 9.3259-0.68201 36.311-4.8244 45-6.9082 38.228-9.1681 60.29-16.754 82-28.195l6-3.1621 0.5-226.11 0.5-226.11 5.2617-3.2383c2.8943-1.7821 11.107-7.227 18.25-12.098l12.988-8.8555v-44.895-44.893h-30-30v14.5 14.5h-29.5-29.5v-14.5-14.5l-5.25-0.0371c-3.1688-0.0214-15.499-0.0323-27.436-0.0312zm-812.14 141.57-15.725 0.11914c-8.6478 0.0666-21.91 0.1791-29.473 0.25l-13.75 0.13086v44.836 44.838l22.527 14.854 22.527 14.855-0.27735 178.81-0.27734 178.81 51 0.1172c28.05 0.065 54.6 0.178 59 0.25s18.462 0.011 31.25-0.1367l23.25-0.2676 0.0195-101.23c0.0223-112.47 0.0225-112.46 6.502-126.48 12.975-28.083 58.93-43.307 120.37-40.945 61.435-2.3621 107.39 12.863 120.37 40.945 6.4794 14.024 6.4796 14.017 6.502 126.48l0.0195 101.23 23.25 0.2676c12.788 0.1473 26.85 0.2087 31.25 0.1367s30.95-0.185 59-0.25l51-0.1172-0.27734-178.81-0.27734-178.81 22.527-14.855 22.527-14.854v-44.838-44.836l-13.75-0.13086c-7.5625-0.0709-20.825-0.1834-29.473-0.25l-15.737-0.1-0.27539 15-0.27734 15-29.75 0.26367-29.75 0.26563v-15.016-15.014h-30-30v15 15h-29.5c-22.888 0-29.519-0.28019-29.586-1.25-0.0473-0.6875-0.11088-7.4375-0.14258-15l-0.0586-13.75h-29.857-29.855v15 15h-30-7.8867-7.8867-30v-15-15h-29.855-29.857l-0.0586 13.75c-0.0317 7.5625-0.0954 14.312-0.14257 15-0.0666 0.96981-6.6984 1.25-29.586 1.25h-29.5v-15-15h-30-30v15.014 15.016l-29.75-0.26563-29.75-0.26367-0.27735-15z"/>
</g>
</svg>
